<svg xmlns="http://www.w3.org/2000/svg" viewBox="0 0 1600 420" role="img" aria-labelledby="title desc">
  <title id="title">OneSake deckbuilder banner</title>
  <desc id="desc">A soft neon skull-and-straw-hat inspired banner on a dark misty background.</desc>
  <defs>
    <radialGradient id="mist" cx="50%" cy="46%" r="68%">
      <stop offset="0%" stop-color="#e8fbff" stop-opacity="0.28" />
      <stop offset="35%" stop-color="#46d3d7" stop-opacity="0.12" />
      <stop offset="72%" stop-color="#111a1f" stop-opacity="0.82" />
      <stop offset="100%" stop-color="#080b0f" stop-opacity="1" />
    </radialGradient>
    <linearGradient id="hat" x1="0%" y1="0%" x2="100%" y2="0%">
      <stop offset="0%" stop-color="#ffe880" />
      <stop offset="46%" stop-color="#f04c35" />
      <stop offset="100%" stop-color="#fff7a3" />
    </linearGradient>
    <filter id="softGlow" x="-40%" y="-40%" width="180%" height="180%">
      <feGaussianBlur stdDeviation="8" result="blur" />
      <feColorMatrix in="blur" type="matrix" values="1 0 0 0 0.85 0 1 0 0 0.95 0 0 1 0 1 0 0 0 0.72 0" result="glow" />
      <feMerge>
        <feMergeNode in="glow" />
        <feMergeNode in="SourceGraphic" />
      </feMerge>
    </filter>
    <filter id="heavyGlow" x="-70%" y="-70%" width="240%" height="240%">
      <feGaussianBlur stdDeviation="22" result="blur" />
      <feColorMatrix in="blur" type="matrix" values="1 0 0 0 0.95 0 1 0 0 0.85 0 0 1 0 0.45 0 0 0 0.65 0" />
    </filter>
  </defs>

  <rect width="1600" height="420" fill="#0b1015" />
  <rect width="1600" height="420" fill="url(#mist)" />
  <g opacity="0.26">
    <path d="M0 82 C220 42 360 128 560 88 C770 46 926 42 1120 90 C1300 134 1440 96 1600 66 L1600 0 L0 0 Z" fill="#243139" />
    <path d="M0 326 C230 282 390 358 600 324 C780 294 1000 292 1200 332 C1388 370 1480 336 1600 310 L1600 420 L0 420 Z" fill="#192229" />
  </g>

  <g transform="translate(800 218)" filter="url(#heavyGlow)" opacity="0.72">
    <circle r="124" fill="#efffff" opacity="0.34" />
    <ellipse rx="220" ry="56" fill="#f9e96d" opacity="0.2" />
  </g>

  <g transform="translate(800 218)" filter="url(#softGlow)" fill="none" stroke-linecap="round" stroke-linejoin="round">
    <g stroke="#f5fbf7" stroke-width="15" opacity="0.92">
      <path d="M-250 -90 L-150 4" />
      <path d="M250 -90 L150 4" />
      <path d="M-250 90 L-150 -4" />
      <path d="M250 90 L150 -4" />
      <circle cx="-278" cy="-116" r="34" />
      <circle cx="-226" cy="-145" r="34" />
      <circle cx="278" cy="-116" r="34" />
      <circle cx="226" cy="-145" r="34" />
      <circle cx="-278" cy="116" r="34" />
      <circle cx="-226" cy="145" r="34" />
      <circle cx="278" cy="116" r="34" />
      <circle cx="226" cy="145" r="34" />
    </g>

    <g stroke="#f8fff8" stroke-width="14">
      <path d="M-126 -28 C-124 -112 -70 -166 0 -166 C70 -166 124 -112 126 -28" />
      <path d="M-128 -28 C-130 92 -86 162 0 162 C86 162 130 92 128 -28" />
      <path d="M-202 -31 H202" />
      <path d="M-92 54 C-44 88 44 88 92 54" />
      <path d="M-84 72 V118" />
      <path d="M-42 86 V132" />
      <path d="M0 92 V138" />
      <path d="M42 86 V132" />
      <path d="M84 72 V118" />
    </g>

    <g stroke="url(#hat)" stroke-width="13">
      <path d="M-145 -58 H145" />
      <path d="M-132 -58 C-105 -132 -58 -172 0 -172 C58 -172 105 -132 132 -58" />
      <path d="M-160 -26 H160" />
    </g>

    <g fill="#f8fff8" stroke="none">
      <circle cx="-58" cy="22" r="31" />
      <circle cx="58" cy="22" r="31" />
      <circle cx="0" cy="64" r="8" opacity="0.8" />
    </g>

    <g stroke="#fff7a3" stroke-width="7" opacity="0.9">
      <path d="M-54 -123 L-68 -98" />
      <path d="M-20 -134 L-28 -108" />
      <path d="M54 -123 L68 -98" />
      <path d="M20 -134 L28 -108" />
    </g>
  </g>

  <rect width="1600" height="420" fill="#eef3f4" opacity="0.22" />
</svg>
